<svg xmlns="http://www.w3.org/2000/svg" viewBox="0 0 800 600" className="w-full h-full">
    <rect width="800" height="600" fill="#fdf9f3" />

    <rect x="100" y="150" width="600" height="20" fill="#d4a76a" opacity="0.4" rx="4" />
    <rect x="120" y="250" width="560" height="20" fill="#d4a76a" opacity="0.4" rx="4" />
    <rect x="140" y="350" width="520" height="20" fill="#d4a76a" opacity="0.4" rx="4" />

    <rect x="150" y="120" width="15" height="30" fill="#8b4513" rx="2" />
    <rect x="180" y="110" width="20" height="40" fill="#a0522d" rx="2" />
    <rect x="220" y="125" width="12" height="25" fill="#cd853f" rx="2" />
    <rect x="600" y="220" width="18" height="30" fill="#8b4513" rx="2" />
    <rect x="630" y="210" width="22" height="40" fill="#a0522d" rx="2" />

    <ellipse cx="650" cy="450" rx="40" ry="30" fill="#2f2f2f" opacity="0.3" />
    <ellipse cx="650" cy="420" rx="30" ry="10" fill="#4a90e2" opacity="0.2" />

    <rect x="50" y="80" width="120" height="120" fill="#f9f3e9" stroke="#d4a76a" stroke-width="2" rx="6" />
    <rect x="55" y="85" width="110" height="110" fill="#fff8e1" opacity="0.6" />

    <circle cx="110" cv="140" r="80" fill="#ffd54f" opacity="0.1" />

    <circle cx="200" cy="60" r="8" fill="#7cb342" opacity="0.5" />
    <circle cx="230" cy="50" r="10" fill="#689f38" opacity="0.5" />
    <circle cx="260" cy="70" r="7" fill="#8bc34a" opacity="0.5" />

    <rect y="500" width="800" height="100" fill="#e0d3c5" opacity="0.5" />
</svg>
